<svg width="252" height="828" viewBox="0 0 252 828" fill="none" xmlns="http://www.w3.org/2000/svg">
<circle cx="159" cy="355" r="38.5" stroke="white" stroke-opacity="0.5" stroke-width="5"/>
<circle cx="104" cy="278" r="26.5" stroke="white" stroke-opacity="0.5" stroke-width="5"/>
<circle cx="190" cy="547" r="21.5" stroke="white" stroke-opacity="0.5" stroke-width="5"/>
<circle cx="111" cy="495" r="21.5" stroke="white" stroke-opacity="0.5" stroke-width="5"/>
<circle cx="127" cy="595" r="21.5" stroke="white" stroke-opacity="0.5" stroke-width="5"/>
<circle cx="159" cy="207" r="21.5" stroke="white" stroke-opacity="0.5" stroke-width="5"/>
<circle cx="112.5" cy="205.5" r="6" stroke="white" stroke-opacity="0.5" stroke-width="5"/>
<circle cx="77.5" cy="725.5" r="6" stroke="white" stroke-opacity="0.5" stroke-width="5"/>
<circle cx="52.5" cy="233.5" r="6" stroke="white" stroke-opacity="0.5" stroke-width="5"/>
<circle cx="157.5" cy="281.5" r="6" stroke="white" stroke-opacity="0.5" stroke-width="5"/>
<circle cx="78.5" cy="363.5" r="6" stroke="white" stroke-opacity="0.5" stroke-width="5"/>
<circle cx="151.5" cy="59.5" r="6" stroke="white" stroke-opacity="0.5" stroke-width="5"/>
<circle cx="102.5" cy="8.5" r="6" stroke="white" stroke-opacity="0.5" stroke-width="5"/>
<circle cx="129.5" cy="544.5" r="6" stroke="white" stroke-opacity="0.5" stroke-width="5"/>
<circle cx="61.5" cy="504.5" r="6" stroke="white" stroke-opacity="0.5" stroke-width="5"/>
<circle cx="87" cy="145" r="14.5" stroke="white" stroke-opacity="0.5" stroke-width="5"/>
<circle cx="91" cy="659" r="33.5" stroke="white" stroke-opacity="0.5" stroke-width="5"/>
<circle cx="193" cy="647" r="21.5" stroke="white" stroke-opacity="0.5" stroke-width="5"/>
<circle cx="43.5" cy="579.5" r="41" stroke="white" stroke-opacity="0.5" stroke-width="5"/>
<circle cx="181.5" cy="480.5" r="30" stroke="white" stroke-opacity="0.5" stroke-width="5"/>
<circle cx="74.5" cy="432.5" r="36" stroke="white" stroke-opacity="0.5" stroke-width="5"/>
<circle cx="151.5" cy="709.5" r="36" stroke="white" stroke-opacity="0.5" stroke-width="5"/>
<circle cx="234.5" cy="728.5" r="15" stroke="white" stroke-opacity="0.5" stroke-width="5"/>
<circle cx="186.5" cy="789.5" r="28" stroke="white" stroke-opacity="0.5" stroke-width="5"/>
<circle cx="68.5" cy="793.5" r="32" stroke="white" stroke-opacity="0.5" stroke-width="5"/>
</svg>
